<svg width="226" height="28" viewBox="0 0 226 28" fill="none" xmlns="http://www.w3.org/2000/svg">
<path d="M212.566 27.8386C211.042 27.8386 209.656 27.4441 208.41 26.6551C207.164 25.8662 206.169 24.6827 205.425 23.1047C204.68 21.5267 204.308 19.5677 204.308 17.2277C204.308 14.798 204.694 12.7986 205.465 11.2296C206.236 9.66058 207.245 8.49952 208.491 7.7464C209.746 6.99328 211.095 6.61672 212.539 6.61672C213.624 6.61672 214.552 6.805 215.323 7.18156C216.094 7.54915 216.73 8.02434 217.232 8.60711C217.735 9.18988 218.116 9.79507 218.376 10.4227H218.51V0H225.086V27.5427H218.577V24.194H218.376C218.098 24.8306 217.703 25.4268 217.192 25.9827C216.681 26.5386 216.04 26.9869 215.269 27.3276C214.507 27.6683 213.606 27.8386 212.566 27.8386ZM214.852 22.7147C215.65 22.7147 216.331 22.4906 216.896 22.0423C217.461 21.585 217.896 20.944 218.201 20.1191C218.506 19.2943 218.658 18.326 218.658 17.2142C218.658 16.0845 218.506 15.1118 218.201 14.2959C217.905 13.48 217.47 12.8524 216.896 12.4131C216.331 11.9737 215.65 11.7541 214.852 11.7541C214.036 11.7541 213.346 11.9782 212.781 12.4265C212.216 12.8748 211.786 13.5069 211.49 14.3228C211.203 15.1386 211.06 16.1025 211.06 17.2142C211.06 18.326 211.207 19.2943 211.503 20.1191C211.799 20.944 212.225 21.585 212.781 22.0423C213.346 22.4906 214.036 22.7147 214.852 22.7147Z" fill="#BDBDBD"/>
<path d="M187.595 15.7618V27.5427H181.019V6.88567H187.272V10.6782H187.501C187.958 9.41401 188.738 8.42329 189.841 7.70603C190.944 6.97981 192.257 6.6167 193.782 6.6167C195.234 6.6167 196.494 6.94395 197.561 7.59845C198.636 8.24398 199.47 9.14952 200.062 10.3151C200.663 11.4716 200.959 12.8255 200.95 14.3765V27.5427H194.373V15.6676C194.382 14.52 194.091 13.6234 193.499 12.9779C192.916 12.3324 192.105 12.0096 191.065 12.0096C190.375 12.0096 189.765 12.162 189.236 12.4668C188.716 12.7627 188.312 13.1886 188.026 13.7445C187.748 14.3003 187.604 14.9728 187.595 15.7618Z" fill="#BDBDBD"/>
<path d="M167.856 27.9327C165.695 27.9327 163.83 27.5069 162.261 26.6551C160.701 25.7944 159.5 24.5706 158.657 22.9837C157.823 21.3877 157.406 19.4915 157.406 17.2949C157.406 15.161 157.828 13.2962 158.671 11.7003C159.513 10.0954 160.701 8.84917 162.235 7.96156C163.768 7.06499 165.574 6.6167 167.654 6.6167C169.125 6.6167 170.47 6.84532 171.689 7.30258C172.908 7.75983 173.962 8.43674 174.849 9.33332C175.737 10.2299 176.427 11.3372 176.92 12.6551C177.414 13.9641 177.66 15.4659 177.66 17.1604V18.8011H159.706V14.9817H171.541C171.532 14.2824 171.366 13.6593 171.043 13.1124C170.721 12.5655 170.277 12.1396 169.712 11.8348C169.156 11.521 168.515 11.3641 167.789 11.3641C167.054 11.3641 166.395 11.5299 165.812 11.8617C165.229 12.1844 164.767 12.6282 164.427 13.1931C164.086 13.7489 163.907 14.381 163.889 15.0893V18.976C163.889 19.8187 164.055 20.5584 164.386 21.195C164.718 21.8226 165.189 22.3112 165.798 22.6609C166.408 23.0105 167.134 23.1854 167.977 23.1854C168.56 23.1854 169.089 23.1047 169.564 22.9433C170.039 22.7819 170.447 22.5443 170.788 22.2305C171.129 21.9167 171.384 21.5312 171.554 21.074L177.593 21.2488C177.342 22.6026 176.79 23.7816 175.939 24.7858C175.096 25.781 173.989 26.5565 172.617 27.1124C171.245 27.6593 169.658 27.9327 167.856 27.9327Z" fill="#BDBDBD"/>
<path d="M154.451 13.1931L148.413 13.3544C148.35 12.9241 148.18 12.5431 147.902 12.2113C147.624 11.8706 147.261 11.6061 146.812 11.4179C146.373 11.2206 145.862 11.122 145.279 11.122C144.517 11.122 143.867 11.2744 143.329 11.5792C142.8 11.8841 142.54 12.2965 142.549 12.8165C142.54 13.22 142.701 13.5696 143.033 13.8655C143.374 14.1614 143.979 14.399 144.849 14.5783L148.83 15.3314C150.892 15.7259 152.425 16.3804 153.429 17.2949C154.442 18.2094 154.953 19.4198 154.962 20.926C154.953 22.3426 154.532 23.5754 153.698 24.6244C152.873 25.6734 151.743 26.4893 150.309 27.072C148.874 27.6458 147.234 27.9327 145.387 27.9327C142.437 27.9327 140.11 27.3276 138.407 26.1172C136.712 24.8978 135.744 23.2661 135.502 21.2219L141.998 21.0605C142.141 21.8136 142.513 22.3874 143.114 22.7819C143.715 23.1764 144.481 23.3737 145.414 23.3737C146.256 23.3737 146.942 23.2168 147.471 22.903C148 22.5892 148.269 22.1723 148.278 21.6522C148.269 21.186 148.063 20.8139 147.659 20.536C147.256 20.2491 146.624 20.025 145.763 19.8636L142.159 19.1777C140.088 18.8011 138.546 18.1063 137.533 17.0932C136.52 16.0711 136.017 14.771 136.026 13.1931C136.017 11.8123 136.385 10.6333 137.129 9.65608C137.873 8.66985 138.931 7.91673 140.303 7.39672C141.675 6.8767 143.293 6.6167 145.158 6.6167C147.955 6.6167 150.161 7.20395 151.775 8.37847C153.389 9.54401 154.281 11.1489 154.451 13.1931Z" fill="#BDBDBD"/>
<path d="M132.587 6.88561V10.1133H121.304V6.88561H132.587ZM124.33 1.93652H128.351V21.4774C128.351 22.2574 128.467 22.8446 128.7 23.2391C128.934 23.6246 129.234 23.8891 129.601 24.0326C129.978 24.1671 130.386 24.2343 130.825 24.2343C131.148 24.2343 131.431 24.2119 131.673 24.1671C131.915 24.1222 132.103 24.0864 132.237 24.0595L132.964 27.3813C132.731 27.4709 132.399 27.5606 131.968 27.6503C131.538 27.7489 131 27.8027 130.355 27.8116C129.297 27.8296 128.31 27.6413 127.396 27.2468C126.481 26.8523 125.742 26.2426 125.177 25.4178C124.612 24.5929 124.33 23.5574 124.33 22.3112V1.93652Z" fill="#BDBDBD"/>
<path d="M104.331 15.2776V27.5427H100.31V6.88567H104.17V10.2478H104.426C104.901 9.154 105.645 8.27536 106.658 7.61189C107.68 6.94843 108.967 6.6167 110.518 6.6167C111.925 6.6167 113.158 6.91257 114.216 7.50431C115.274 8.08708 116.094 8.95676 116.677 10.1133C117.26 11.2699 117.551 12.7 117.551 14.4034V27.5427H113.53V14.8876C113.53 13.3903 113.14 12.2203 112.36 11.3775C111.58 10.5258 110.509 10.0999 109.146 10.0999C108.214 10.0999 107.384 10.3016 106.658 10.7051C105.941 11.1085 105.371 11.7003 104.95 12.4803C104.538 13.2513 104.331 14.1838 104.331 15.2776Z" fill="#BDBDBD"/>
<path d="M86.9862 27.9596C84.951 27.9596 83.1982 27.5248 81.7278 26.6551C80.2664 25.7765 79.1367 24.5437 78.3388 22.9568C77.5498 21.3609 77.1553 19.4915 77.1553 17.3487C77.1553 15.2328 77.5498 13.3679 78.3388 11.7541C79.1367 10.1402 80.2485 8.88055 81.674 7.97501C83.1085 7.06947 84.7851 6.6167 86.7038 6.6167C87.8693 6.6167 88.999 6.80946 90.0928 7.19499C91.1867 7.58051 92.1684 8.1857 93.0381 9.01055C93.9078 9.8354 94.5936 10.9068 95.0957 12.2248C95.5978 13.5338 95.8488 15.1252 95.8488 16.999V18.4246H79.4281V15.4121H91.9084C91.9084 14.3541 91.6932 13.4172 91.2629 12.6013C90.8325 11.7765 90.2273 11.1265 89.4473 10.6513C88.6762 10.1761 87.7707 9.9385 86.7307 9.9385C85.601 9.9385 84.6148 10.2164 83.772 10.7723C82.9382 11.3192 82.2926 12.0365 81.8354 12.9241C81.3871 13.8027 81.163 14.7576 81.163 15.7886V18.1422C81.163 19.5229 81.405 20.6974 81.8892 21.6657C82.3823 22.634 83.0682 23.3737 83.9468 23.8847C84.8255 24.3868 85.852 24.6378 87.0266 24.6378C87.7886 24.6378 88.4835 24.5302 89.1111 24.3151C89.7387 24.0909 90.2811 23.7592 90.7384 23.3199C91.1956 22.8805 91.5453 22.3381 91.7874 21.6926L95.5933 22.3785C95.2885 23.4992 94.7416 24.4809 93.9526 25.3237C93.1726 26.1575 92.1908 26.8075 91.0073 27.2738C89.8328 27.731 88.4924 27.9596 86.9862 27.9596Z" fill="#BDBDBD"/>
<path d="M72.6735 0V27.5427H68.6523V0H72.6735Z" fill="#BDBDBD"/>
<path d="M53.1024 28C51.7934 28 50.6099 27.7579 49.552 27.2738C48.494 26.7806 47.6557 26.0679 47.0371 25.1354C46.4274 24.203 46.1226 23.0599 46.1226 21.706C46.1226 20.5405 46.3467 19.5812 46.795 18.828C47.2433 18.0749 47.8485 17.4787 48.6106 17.0394C49.3726 16.6 50.2244 16.2683 51.1658 16.0442C52.1072 15.82 53.0665 15.6497 54.0438 15.5331C55.2811 15.3897 56.2852 15.2731 57.0563 15.1835C57.8273 15.0848 58.3877 14.9279 58.7374 14.7128C59.087 14.4976 59.2618 14.1479 59.2618 13.6638V13.5696C59.2618 12.3951 58.9301 11.4851 58.2667 10.8396C57.6122 10.194 56.6349 9.87126 55.3349 9.87126C53.981 9.87126 52.9141 10.1716 52.1341 10.7723C51.363 11.3641 50.8296 12.023 50.5337 12.7493L46.7546 11.8886C47.2029 10.6333 47.8574 9.62022 48.7181 8.84917C49.5878 8.06915 50.5875 7.50431 51.7172 7.15464C52.8469 6.79601 54.0348 6.6167 55.2811 6.6167C56.1059 6.6167 56.9801 6.71532 57.9035 6.91257C58.836 7.10085 59.7057 7.45051 60.5126 7.96156C61.3285 8.4726 61.9964 9.20331 62.5164 10.1537C63.0364 11.0951 63.2964 12.3189 63.2964 13.8252V27.5427H59.3694V24.7185H59.2081C58.948 25.2385 58.558 25.7496 58.038 26.2517C57.518 26.7537 56.8501 27.1707 56.0342 27.5024C55.2183 27.8341 54.241 28 53.1024 28ZM53.9765 24.7723C55.0883 24.7723 56.0387 24.5527 56.8277 24.1133C57.6256 23.674 58.2308 23.1002 58.6432 22.3919C59.0646 21.6747 59.2753 20.9081 59.2753 20.0922V17.4294C59.1318 17.5728 58.8539 17.7073 58.4415 17.8328C58.038 17.9494 57.5763 18.0525 57.0563 18.1422C56.5363 18.2228 56.0297 18.2991 55.5366 18.3708C55.0435 18.4335 54.631 18.4873 54.2993 18.5322C53.5193 18.6308 52.8065 18.7967 52.161 19.0298C51.5244 19.2629 51.0134 19.5991 50.6278 20.0384C50.2513 20.4688 50.063 21.0426 50.063 21.7598C50.063 22.755 50.4306 23.5081 51.1658 24.0192C51.901 24.5213 52.8379 24.7723 53.9765 24.7723Z" fill="#BDBDBD"/>
<path d="M42.6428 6.88561V10.1133H31.3594V6.88561H42.6428ZM34.3853 1.93652H38.4064V21.4774C38.4064 22.2574 38.523 22.8446 38.7561 23.2391C38.9892 23.6246 39.2896 23.8891 39.6572 24.0326C40.0337 24.1671 40.4417 24.2343 40.881 24.2343C41.2038 24.2343 41.4862 24.2119 41.7283 24.1671C41.9703 24.1222 42.1586 24.0864 42.2931 24.0595L43.0193 27.3813C42.7862 27.4709 42.4545 27.5606 42.0241 27.6503C41.5938 27.7489 41.0558 27.8027 40.4103 27.8116C39.3523 27.8296 38.3661 27.6413 37.4516 27.2468C36.5371 26.8523 35.7974 26.2426 35.2326 25.4178C34.6677 24.5929 34.3853 23.5574 34.3853 22.3112V1.93652Z" fill="#BDBDBD"/>
<rect y="5.7666" width="20.8292" height="5.68069" fill="#BDBDBD"/>
<rect x="1.89355" y="20.915" width="20.8292" height="5.68069" transform="rotate(-45 1.89355 20.915)" fill="#BDBDBD"/>
<rect x="15.1484" y="26.5957" width="20.8292" height="5.68069" transform="rotate(-90 15.1484 26.5957)" fill="#BDBDBD"/>
<rect x="23.6694" y="11.4473" width="5.68069" height="5.68069" rx="2.84035" transform="rotate(180 23.6694 11.4473)" fill="#828282"/>
<rect x="20.8291" y="11.4473" width="5.68069" height="5.68069" transform="rotate(180 20.8291 11.4473)" fill="#828282"/>
<rect x="20.8291" y="8.60693" width="5.68069" height="5.68069" rx="2.84035" transform="rotate(180 20.8291 8.60693)" fill="#828282"/>
</svg>
